<svg xmlns="http://www.w3.org/2000/svg" version="1.1" xmlns:xlink="http://www.w3.org/1999/xlink" xmlns:svgjs="http://svgjs.com/svgjs" width="1440" height="560" preserveAspectRatio="none" viewBox="0 0 1440 560">
    <g mask="url(&quot;#SvgjsMask1003&quot;)" fill="none">
        <rect width="1440" height="560" x="0" y="0" fill="url(#SvgjsLinearGradient1004)"></rect>
        <path d="M855.4289747564014 386.14479113299024L962.2358259732387 361.48648659274187 937.5775214329902 254.6796353759047 830.770670216153 279.33793991615306z" fill="rgba(28, 83, 142, 0.4)" class="triangle-float2"></path>
        <path d="M1370.151,447.091C1408.948,447.138,1449.673,436.677,1469.551,403.359C1489.827,369.374,1483.818,325.973,1462.186,292.835C1442.45,262.602,1406.223,252.639,1370.151,251.092C1330.228,249.38,1285.152,250.821,1263.349,284.308C1240.138,319.957,1247.832,367.552,1271.168,403.119C1292.396,435.473,1331.455,447.044,1370.151,447.091" fill="rgba(28, 83, 142, 0.4)" class="triangle-float3"></path>
        <path d="M1076.829777591761 23.961108315687717L1027.9997033434609 119.79552501999831 1123.8341200477714 168.62559926829854 1172.6641942960716 72.79118256398795z" fill="rgba(28, 83, 142, 0.4)" class="triangle-float3"></path>
        <path d="M266.9434956921998 346.7855295450487L352.2002850090022 402.1519358990205 407.566691362974 316.8951465822181 322.3099020461716 261.5287402282463z" fill="rgba(28, 83, 142, 0.4)" class="triangle-float2"></path>
        <path d="M752.998,91.575C768.425,90.768,782.05,82.915,790.434,69.94C799.718,55.571,805.467,37.767,797.57,22.592C789.174,6.46,771.184,-1.876,752.998,-1.995C734.59,-2.116,716.741,6.138,707.401,22C697.929,38.085,697.873,58.632,708.105,74.245C717.529,88.624,735.829,92.473,752.998,91.575" fill="rgba(28, 83, 142, 0.4)" class="triangle-float1"></path>
        <path d="M1188.816622598679-61.21930595429745L1101.1393529358095 59.45810284595198 1221.8167617360589 147.13537250882158 1309.4940313989284 26.45796370857216z" fill="rgba(28, 83, 142, 0.4)" class="triangle-float1"></path>
    </g>
    <defs>
        <mask id="SvgjsMask1003">
            <rect width="1440" height="560" fill="#ffffff"></rect>
        </mask>
        <linearGradient x1="15.28%" y1="-39.29%" x2="84.72%" y2="139.29%" gradientUnits="userSpaceOnUse" id="SvgjsLinearGradient1004">
            <stop stop-color="#0e2a47" offset="0"></stop>
            <stop stop-color="#00459e" offset="1"></stop>
        </linearGradient>
        <style>
            @keyframes float1 {
                0%{transform: translate(0, 0)}
                50%{transform: translate(-10px, 0)}
                100%{transform: translate(0, 0)}
            }

            .triangle-float1 {
                animation: float1 5s infinite;
            }

            @keyframes float2 {
                0%{transform: translate(0, 0)}
                50%{transform: translate(-5px, -5px)}
                100%{transform: translate(0, 0)}
            }

            .triangle-float2 {
                animation: float2 4s infinite;
            }

            @keyframes float3 {
                0%{transform: translate(0, 0)}
                50%{transform: translate(0, -10px)}
                100%{transform: translate(0, 0)}
            }

            .triangle-float3 {
                animation: float3 6s infinite;
            }
        </style>
    </defs>
</svg>